<?xml version="1.0" standalone="no"?><!DOCTYPE svg PUBLIC "-//W3C//DTD SVG 1.1//EN" "http://www.w3.org/Graphics/SVG/1.1/DTD/svg11.dtd"><svg t="1573786970215" class="icon" viewBox="0 0 1024 1024" version="1.1" xmlns="http://www.w3.org/2000/svg" p-id="5690" xmlns:xlink="http://www.w3.org/1999/xlink" width="18" height="18"><defs><style type="text/css"></style></defs><path d="M534.26087 521.216v40.425739h123.458782a22.26087 22.26087 0 0 1 0 44.521739H534.26087v63.354435h123.458782a22.26087 22.26087 0 0 1 0 44.521739H534.26087v85.659826a22.26087 22.26087 0 0 1-44.52174 0v-85.659826H366.280348a22.26087 22.26087 0 1 1 0-44.521739H489.73913v-63.354435H366.280348a22.26087 22.26087 0 1 1 0-44.521739H489.73913v-35.884522L383.020522 419.038609a22.26087 22.26087 0 0 1 31.476869-31.47687l95.232 95.232 96.612174-96.656696a22.26087 22.26087 0 0 1 31.521392 31.47687L534.26087 521.216z" fill="#c9191d" p-id="5691"></path><path d="M676.374261 282.35687c65.224348-85.926957 86.461217-138.373565 74.618435-150.038261-3.82887-3.82887-23.641043-0.845913-64.24487 12.777739l-3.962435 1.335652c-37.843478 12.733217-51.867826 16.65113-68.919652 17.497043-30.586435 1.513739-51.645217-15.181913-51.645217-47.504695 0-35.57287-14.246957-49.641739-50.576696-49.641739a22.26087 22.26087 0 1 1 0-44.521739c60.816696 0 95.142957 33.836522 95.142957 94.163478 0 4.897391-1.914435 3.383652 4.897391 3.027478 11.130435-0.534261 23.863652-4.096 56.943304-15.226435l4.006957-1.335652c61.261913-20.524522 87.173565-24.486957 109.657043-2.270609 34.994087 34.54887 11.842783 97.28-59.926261 194.56 127.599304 73.772522 212.591304 208.183652 212.591305 342.683827 0 201.817043-190.107826 363.876174-422.956522 363.876173S89.043478 839.68 89.043478 637.862957c0-145.897739 99.951304-291.439304 245.314783-359.780174a22.26087 22.26087 0 0 1 18.966261 40.292174C223.053913 379.63687 133.565217 509.862957 133.565217 637.862957c0 175.504696 168.737391 319.354435 378.434783 319.354434s378.434783-143.805217 378.434783-319.354434c0-125.551304-86.149565-253.551304-212.947479-316.193392a22.26087 22.26087 0 0 1-1.113043-39.312695z" fill="#c9191d" p-id="5692"></path><path d="M356.708174 282.757565a22.26087 22.26087 0 1 1-35.439304 26.935652C240.996174 204.087652 213.704348 136.859826 250.479304 100.61913c22.438957-22.171826 48.39513-18.253913 109.701566 2.226087l4.006956 1.335653c33.03513 11.130435 45.723826 14.692174 56.898783 15.270956 6.811826 0.356174 4.897391 1.825391 4.897391-3.027478 0-60.282435 34.281739-94.163478 95.142957-94.163478a22.26087 22.26087 0 0 1 0 44.521739c-36.374261 0-50.621217 14.06887-50.621218 49.641739 0 32.322783-21.014261 48.973913-51.645217 47.504695-17.051826-0.845913-31.031652-4.763826-68.875131-17.497043l-3.962434-1.335652c-40.603826-13.623652-60.416-16.606609-64.24487-12.822261-11.887304 11.709217 9.438609 64.333913 74.930087 150.483478z" fill="#c9191d" p-id="5693"></path></svg>