<?xml version="1.0" standalone="no"?><!DOCTYPE svg PUBLIC "-//W3C//DTD SVG 1.1//EN" "http://www.w3.org/Graphics/SVG/1.1/DTD/svg11.dtd"><svg t="1584617159255" class="icon" viewBox="0 0 1024 1024" version="1.1" xmlns="http://www.w3.org/2000/svg" p-id="41554" width="26" height="26" xmlns:xlink="http://www.w3.org/1999/xlink"><defs><style type="text/css"></style></defs><path d="M226.304 219.136c-18.432 0-30.72 12.8-30.72 30.72 0 18.432 12.8 30.72 30.72 30.72h460.8c18.432 0 30.72-12.8 30.72-30.72 0-18.432-12.8-30.72-30.72-30.72h-460.8z" fill="#036EB8" p-id="41555"></path><path d="M118.784 871.936v-737.28c0-18.432 19.456-37.888 37.888-37.888h705.024c13.824 0 24.576 19.968 24.576 37.888v514.56h61.952V134.656c0-65.536-34.304-99.84-68.096-99.84H143.36c-46.08 0-86.016 40.448-86.016 86.016V885.76c0 38.912 46.08 86.016 99.84 86.016h238.08v-61.952H156.672c-18.432 0.512-37.888-18.944-37.888-37.888z" fill="#036EB8" p-id="41556"></path><path d="M364.032 587.776h-138.24c-18.432 0-30.72 12.8-30.72 30.72s12.8 30.72 30.72 30.72h138.24c18.432 0 30.72-12.8 30.72-30.72s-12.288-30.72-30.72-30.72zM963.584 868.864L849.92 673.792c14.848-31.744 22.016-58.88 22.016-87.04 0-98.304-79.872-178.176-178.176-178.176s-178.176 79.872-178.176 178.176c0 27.648 8.704 55.296 17.92 81.92l-105.984 212.48c-6.656 13.824-1.024 30.72 12.288 37.376 5.12 2.56 10.24 3.584 15.872 2.56l73.216-8.704 38.912 62.464c4.096 6.144 10.24 10.752 17.408 12.288 2.048 0.512 4.096 0.512 6.656 0.512 5.12 0 10.24-1.536 14.848-4.096 4.096-2.56 7.68-6.144 10.24-10.752l82.944-158.72 88.576 155.648c3.584 6.656 9.728 11.264 16.896 13.312 7.168 2.048 14.848 1.024 20.992-2.56 5.12-3.072 9.216-7.68 11.776-12.8l27.136-60.928 73.216 3.072c15.36 0.512 28.16-11.264 29.184-26.624-0.512-4.608-1.536-9.728-4.096-14.336z m-300.544-105.472l-71.68 139.264-32.256-52.224-58.88 8.192 75.264-142.848c29.696 26.112 57.856 41.472 87.552 47.616z m156.672-172.544c0 31.744-13.312 65.536-34.304 86.528-22.016 22.016-52.736 34.304-86.528 34.304-33.792 0-64.512-12.288-86.528-34.304-22.016-22.016-34.304-52.736-34.304-86.528 0-31.744 13.312-65.536 34.304-86.528 22.016-22.016 52.736-34.304 86.528-34.304 31.744 0 65.536 13.312 86.528 34.304 22.016 22.528 34.304 53.248 34.304 86.528z m1.024 128l79.36 133.632-64-2.048-24.064 49.664-82.432-137.216c33.792-5.632 65.536-21.504 91.136-44.032zM440.832 434.688c0-18.432-12.8-30.72-30.72-30.72h-184.32c-18.432 0-30.72 12.8-30.72 30.72 0 18.432 12.8 30.72 30.72 30.72h184.32c17.92 0 30.72-12.8 30.72-30.72z" fill="#036EB8" p-id="41557"></path></svg>