<?xml version="1.0" standalone="no"?><!DOCTYPE svg PUBLIC "-//W3C//DTD SVG 1.1//EN" "http://www.w3.org/Graphics/SVG/1.1/DTD/svg11.dtd"><svg t="1584612059691" class="icon" viewBox="0 0 1024 1024" version="1.1" xmlns="http://www.w3.org/2000/svg" p-id="10692" xmlns:xlink="http://www.w3.org/1999/xlink" width="32" height="32"><defs><style type="text/css"></style></defs><path d="M946.46784 131.84H77.53216c-29.99296 0-54.30784 24.31488-54.30784 54.30784v651.70432c0 29.98784 24.32 54.30784 54.30784 54.30784h868.93568c29.98784 0 54.30784-24.32 54.30784-54.30784V186.14784c0.00512-29.99296-24.31488-54.30784-54.30784-54.30784z m0 706.01216H77.53216V186.14784h868.93568v651.70432z" p-id="10693" fill="#036EB8"></path><path d="M674.92864 294.76352h190.08v54.30784h-190.08V294.76352zM674.92864 430.53568h190.08v54.30784h-190.08V430.53568zM674.92864 539.15648h190.08v54.30784h-190.08v-54.30784zM674.92864 674.92352h190.08v54.30784h-190.08v-54.30784zM438.7584 482.97472v21.65248c0 2.19136-0.27136 4.32128-0.74752 6.36928 72.18688 18.0736 130.41664 75.81696 154.624 151.06048v21.71392c0 24.67328-22.01088 44.69248-49.18784 44.69248H236.13952c-27.15136 0-49.16736-20.01408-49.16736-44.69248v-21.71392c25.68704-79.87712 89.71776-140.06272 168.0896-153.97376a28.52352 28.52352 0 0 1-0.2304-3.456v-24.4992c-91.24352 15.68256-166.10304 91.73504-195.83488 193.26464v27.136c0 30.85312 25.05728 55.86432 55.95648 55.86432h349.71136c30.8992 0 55.9616-25.0112 55.9616-55.86432v-27.136c-28.22656-96.30208-96.9984-169.728-181.86752-190.41792z" p-id="10694" fill="#036EB8"></path><path d="M396.80512 267.61216c-69.53984 0-125.9008 56.2688-125.9008 125.68064 0 55.11168 35.5328 101.89312 84.9664 118.8608a28.29824 28.29824 0 0 1-1.04448-7.5264v-23.1168c-33.0496-15.70304-55.95648-49.24928-55.95648-88.2176 0-53.97504 43.8528-97.74592 97.93536-97.74592 54.07232 0 97.89952 43.76576 97.89952 97.74592 0 38.97344-22.90176 72.52992-55.95136 88.22784v23.10656c0 2.61632-0.384 5.13024-1.04448 7.53664 49.44384-16.95744 84.99712-63.74912 84.99712-118.86592 0.00512-69.41696-56.36608-125.68576-125.9008-125.68576z" p-id="10695" fill="#036EB8"></path></svg>