<?xml version="1.0" standalone="no"?><!DOCTYPE svg PUBLIC "-//W3C//DTD SVG 1.1//EN" "http://www.w3.org/Graphics/SVG/1.1/DTD/svg11.dtd"><svg t="1584616323353" class="icon" viewBox="0 0 1024 1024" version="1.1" xmlns="http://www.w3.org/2000/svg" p-id="36621" xmlns:xlink="http://www.w3.org/1999/xlink" width="26" height="26"><defs><style type="text/css"></style></defs><path d="M517.65248 567.13216h-2.58048c-122.96192 0-224.13312-100.06528-225.52576-223.06816a225.85344 225.85344 0 0 1 223.06816-228.1472h2.58048c122.96192 0 224.17408 100.06528 225.52576 223.06816a224.17408 224.17408 0 0 1-65.90464 161.87392 224.0512 224.0512 0 0 1-157.16352 66.27328m233.63584 42.1888a19.53792 19.53792 0 0 0 10.48576-36.20864 446.62784 446.62784 0 0 0-67.09248-34.89792c3.11296-2.74432 6.18496-5.5296 9.09312-8.47872a265.6256 265.6256 0 0 0 77.824-191.20128c-1.6384-145.28512-121.15968-263.45472-266.40384-263.45472h-3.072a264.64256 264.64256 0 0 0-187.43296 80.2816 264.72448 264.72448 0 0 0-76.02176 189.19424 266.11712 266.11712 0 0 0 91.79136 197.8368A447.16032 447.16032 0 0 0 73.9328 956.8256a19.6608 19.6608 0 0 0 19.6608 19.41504h0.2048a19.57888 19.57888 0 0 0 19.37408-19.8656c-1.92512-170.92608 104.40704-326.0416 264.76544-386.70336a265.46176 265.46176 0 0 0 137.216 38.37952h2.99008a265.216 265.216 0 0 0 139.75552-41.5744 403.37408 403.37408 0 0 1 82.90304 39.85408 19.6608 19.6608 0 0 0 10.48576 2.99008M949.4528 801.9968l-107.02848 1.2288-1.18784-106.98752a19.16928 19.16928 0 1 0-38.37952 0.4096l1.2288 106.98752-106.98752 1.2288a19.12832 19.12832 0 1 0 0.4096 38.37952l107.02848-1.2288 1.18784 106.94656a19.2512 19.2512 0 0 0 19.16928 19.00544h0.24576a19.08736 19.08736 0 0 0 18.92352-19.41504l-1.18784-106.98752 106.98752-1.2288a19.12832 19.12832 0 0 0 18.96448-19.37408 19.29216 19.29216 0 0 0-19.41504-18.96448" p-id="36622" fill="#036EB8"></path></svg>