<?xml version="1.0" standalone="no"?><!DOCTYPE svg PUBLIC "-//W3C//DTD SVG 1.1//EN" "http://www.w3.org/Graphics/SVG/1.1/DTD/svg11.dtd"><svg t="1572420639040" class="icon" viewBox="0 0 1024 1024" version="1.1" xmlns="http://www.w3.org/2000/svg" p-id="10120" xmlns:xlink="http://www.w3.org/1999/xlink" width="18" height="18"><defs><style type="text/css"></style></defs><path d="M502.789733 31.045063c-197.984167 0-358.469278 160.331615-358.469278 358.13568 0 154.503886 218.751143 463.96396 314.490647 591.994915 10.360975 13.858636 26.665313 22.01234 43.97863 22.01234l0 0c17.326621 0 33.629935-8.16496 43.989887-22.024619 95.741551-128.042211 314.478368-437.477726 314.478368-591.981612C861.25901 191.376679 700.773899 31.045063 502.789733 31.045063L502.789733 31.045063zM527.425829 897.313669c-5.719258 7.890714-14.880919 12.554944-24.635073 12.554944s-18.915815-4.66423-24.63405-12.554944C311.617715 668.144246 209.659579 475.927433 209.659579 389.180743c0-161.481811 131.506103-292.844651 293.130154-292.844651 161.625074 0 293.118897 131.36284 293.118897 292.844651C795.909653 475.927433 693.963797 668.155503 527.425829 897.313669L527.425829 897.313669zM502.789733 214.195384c-84.2181 0-152.48695 68.209498-152.48695 152.35699 0 84.122933 68.26885 152.332431 152.48695 152.332431 84.206844 0 152.48695-68.209498 152.48695-152.332431C655.276682 282.404881 586.996576 214.195384 502.789733 214.195384L502.789733 214.195384zM502.789733 453.594799c-48.047296 0-87.136569-39.041178-87.136569-87.042425 0-48.012504 39.089273-87.065961 87.136569-87.065961 48.048319 0 87.126336 39.052434 87.126336 87.065961C589.916069 414.552597 550.838052 453.594799 502.789733 453.594799L502.789733 453.594799zM502.789733 453.594799" p-id="10121" fill="#c9191d"></path></svg>