<?xml version="1.0" standalone="no"?><!DOCTYPE svg PUBLIC "-//W3C//DTD SVG 1.1//EN" "http://www.w3.org/Graphics/SVG/1.1/DTD/svg11.dtd"><svg t="1566267818387" class="icon" viewBox="0 0 1024 1024" version="1.1" xmlns="http://www.w3.org/2000/svg" p-id="2877" width="18" height="18" xmlns:xlink="http://www.w3.org/1999/xlink"><defs><style type="text/css"></style></defs><path d="M970.5472 0H53.4528C23.8592 0 0 23.7568 0 52.8384c0 29.184 23.8592 52.8384 53.4528 52.8384h917.0944c29.5936 0 53.4528-23.6544 53.4528-52.8384C1023.8976 23.6544 1000.1408 0 970.5472 0zM970.5472 459.1616H53.4528C23.8592 459.1616 0 482.816 0 512s23.8592 52.8384 53.4528 52.8384h917.0944c29.5936 0 53.4528-23.6544 53.4528-52.8384-0.1024-29.184-23.8592-52.8384-53.4528-52.8384zM970.5472 918.3232H53.4528C23.8592 918.3232 0 941.9776 0 971.1616s23.8592 52.8384 53.4528 52.8384h917.0944c29.5936 0 53.4528-23.6544 53.4528-52.8384-0.1024-29.184-23.8592-52.8384-53.4528-52.8384z" p-id="2878"></path></svg>