<?xml version="1.0" standalone="no"?><!DOCTYPE svg PUBLIC "-//W3C//DTD SVG 1.1//EN" "http://www.w3.org/Graphics/SVG/1.1/DTD/svg11.dtd"><svg t="1584611148598" class="icon" viewBox="0 0 1024 1024" version="1.1" xmlns="http://www.w3.org/2000/svg" p-id="6174" xmlns:xlink="http://www.w3.org/1999/xlink" width="32" height="32"><defs><style type="text/css"></style></defs><path d="M831.573333 855.68c-8.618667-69.589333-158.592-166.058667-239.786666-178.261333-19.541333-3.754667-27.477333-19.626667-31.701334-43.178667a175.061333 175.061333 0 0 1-2.688-29.952v-8.533333l5.845334-6.144c1.536-1.621333 4.522667-5.034667 8.533333-10.069334 6.741333-8.533333 13.525333-18.346667 19.84-29.056 13.354667-22.613333 22.741333-46.336 26.538667-70.144l2.858666-18.005333h18.218667c8.405333 0 18.517333-48.981333 4.053333-62.506667l-7.296-6.826666 0.554667-9.984c0.170667-2.986667 1.834667-18.858667 1.92-19.84 2.858667-29.653333 2.730667-55.125333-2.304-79.744C624.213333 224.853333 587.818667 192 512 192c-75.392 0-111.786667 32.853333-123.989333 91.306667-5.205333 24.917333-5.376 50.773333-2.474667 80.341333 0.170667 1.92 1.749333 16.554667 1.92 19.285333l0.597333 10.368-7.765333 6.912c-14.976 13.226667-4.437333 62.122667 4.48 62.122667h18.218667l2.858666 18.005333c4.266667 26.709333 15.488 53.12 31.232 77.866667 9.514667 14.933333 18.346667 25.770667 23.68 31.402667l5.845334 6.144v8.533333c0 7.210667-0.597333 17.536-2.432 28.416-4.096 24.448-11.946667 40.874667-32.768 44.842667-80.426667 12.074667-230.4 108.544-239.018667 178.133333A467.669333 467.669333 0 0 0 512 981.333333c123.477333 0 235.818667-47.701333 319.573333-125.653333z m33.792-34.816A467.541333 467.541333 0 0 0 981.333333 512c0-259.2-210.133333-469.333333-469.333333-469.333333S42.666667 252.8 42.666667 512c0 118.272 43.733333 226.346667 115.968 308.906667 36.693333-84.608 173.952-169.301333 260.821333-184.618667 0.981333-2.56 1.92-6.272 2.645333-10.666667 0.810667-4.693333 1.28-9.386667 1.578667-13.525333a289.792 289.792 0 0 1-22.570667-30.976 256.853333 256.853333 0 0 1-34.773333-80.554667c-35.626667-18.176-48.554667-87.338667-22.314667-123.477333l-0.981333-9.344c-3.242667-33.450667-3.029333-63.189333 3.2-93.141333C362.368 197.205333 415.445333 149.333333 512 149.333333c97.024 0 150.101333 47.957333 165.973333 125.568 6.016 29.610667 6.186667 58.88 2.986667 92.330667l-1.024 10.112c25.173333 36.138667 12.885333 104.96-22.229333 123.136a251.733333 251.733333 0 0 1-29.312 71.68 290.261333 290.261333 0 0 1-28.074667 39.978667c0.298667 4.437333 0.853333 9.557333 1.749333 14.506666 0.725333 3.968 1.578667 7.296 2.474667 9.642667 87.594667 15.786667 224.213333 100.266667 260.821333 184.576zM512 1024C229.248 1024 0 794.752 0 512S229.248 0 512 0s512 229.248 512 512-229.248 512-512 512z" fill="#036EB8" p-id="6175"></path></svg>