<?xml version="1.0" standalone="no"?><!DOCTYPE svg PUBLIC "-//W3C//DTD SVG 1.1//EN" "http://www.w3.org/Graphics/SVG/1.1/DTD/svg11.dtd"><svg t="1584951320836" class="icon" viewBox="0 0 1024 1024" version="1.1" xmlns="http://www.w3.org/2000/svg" p-id="2708" xmlns:xlink="http://www.w3.org/1999/xlink" width="32" height="32"><defs><style type="text/css"></style></defs><path d="M512 104.9c224.5 0 407.1 182.6 407.1 407.1S736.5 919.1 512 919.1c-224.5 0-407.1-182.6-407.1-407.1S287.5 104.9 512 104.9m0-42.9C263.5 62 62 263.5 62 512s201.5 450 450 450 450-201.5 450-450S760.5 62 512 62z" p-id="2709" fill="#d81e06"></path><path d="M557.5 512l127.3-127.3c12.6-12.6 12.6-32.9 0-45.5-12.6-12.6-32.9-12.6-45.5 0L512 466.5 384.7 339.3c-12.6-12.6-32.9-12.6-45.5 0-12.6 12.6-12.6 32.9 0 45.5L466.5 512 339.3 639.3c-12.6 12.6-12.6 32.9 0 45.5 6.3 6.3 14.5 9.4 22.7 9.4s16.4-3.1 22.7-9.4L512 557.5l127.3 127.3c6.3 6.3 14.5 9.4 22.7 9.4s16.4-3.1 22.7-9.4c12.6-12.6 12.6-32.9 0-45.5L557.5 512z" p-id="2710" fill="#d81e06"></path></svg>