<?xml version="1.0" standalone="no"?><!DOCTYPE svg PUBLIC "-//W3C//DTD SVG 1.1//EN" "http://www.w3.org/Graphics/SVG/1.1/DTD/svg11.dtd"><svg t="1584674177469" class="icon" viewBox="0 0 1024 1024" version="1.1" xmlns="http://www.w3.org/2000/svg" p-id="6070" xmlns:xlink="http://www.w3.org/1999/xlink" width="32" height="32"><defs><style type="text/css"></style></defs><path d="M905.9 572.6L693.2 359.9c-33.4-33.4-77.9-51.8-125.4-51.8-22.8 0-44.9 4.4-65.5 12.5L374.2 192.5c-69.2-69.2-181.7-69.2-250.9 0l-8.4 8.4c-33.4 33.4-51.8 77.9-51.8 125.4s18.4 92.1 51.8 125.4l212.8 212.8c33.4 33.4 77.9 51.7 125.4 51.7 22.8 0 44.9-4.3 65.5-12.5l128.1 128.1c33.4 33.4 77.9 51.8 125.4 51.8s92-18.4 125.4-51.8l8.4-8.4c33.4-33.4 51.8-77.9 51.8-125.4 0-47.4-18.4-92-51.8-125.4z m-538.6 52.3L154.6 412.1c-22.8-22.8-35.4-53.3-35.4-85.8s12.6-63 35.4-85.8l8.4-8.4c47.3-47.3 124.3-47.3 171.6 0l118.2 118.2c-3.6 3.1-7.1 6.2-10.5 9.5l-8.4 8.4c-31.8 31.8-51 75.9-52.6 121-0.8 22.8 2.8 44.8 10.4 65.3L207.5 370.3c-22.3-22.3-22.3-58.7 0-81l4.3-4.3c22.3-22.3 58.7-22.3 81 0l74 73.9c7.3 7.3 19.1 7.3 26.4 0 7.3-7.3 7.3-19.1 0-26.4l-73.9-74c-36.9-36.9-96.9-36.9-133.8 0l-4.3 4.3c-36.9 36.9-36.9 96.9 0 133.8l199.7 199.8C398.6 614.1 423 624 448 624c4.6 0 9.2-0.3 13.8-1 20.2-3 38.5-12.2 52.9-26.6l4.2-4.3c35.8-35.8 36.7-93.3 3.1-130.4 1.4-1.8 2.9-3.5 4.5-5.1l4.2-4.3c4.4-4.4 9.5-7.7 14.8-10.4 1.1 1.8 2.4 3.5 3.9 5.1 22.6 22.5 34.7 52.5 34.3 84.3-0.4 31.8-13.4 62.1-36.5 85.1l-8.4 8.4c-22.8 22.8-53.3 35.4-85.8 35.4-32.4 0-62.9-12.5-85.7-35.3z m499 159l-8.4 8.4c-47.3 47.3-124.3 47.3-171.6 0L568.1 674c3.6-3.1 7.1-6.2 10.5-9.5l8.4-8.4c33.4-33.4 52.2-77.4 52.9-123.9 0.3-21.7-3.5-42.8-10.8-62.5l185 185c22.3 22.3 22.3 58.6 0 80.9l-4.3 4.3c-10.8 10.8-25.1 16.7-40.5 16.7-15.3 0-29.7-5.9-40.5-16.7l-78.1-78.1c-7.3-7.3-19.1-7.3-26.4 0-7.3 7.3-7.3 19.1 0 26.4l78.1 78.1c17.8 17.8 41.6 27.6 66.9 27.6 25.3 0 49.1-9.8 66.9-27.6l4.3-4.3c36.9-36.9 36.9-96.9 0-133.8L638.1 426c-36.9-36.9-96.9-36.9-133.8 0l-4.2 4.2c-17.8 17.8-27.6 41.6-27.6 66.9 0 23.7 8.7 45.9 24.4 63.3-1.4 1.8-2.7 3.7-4.4 5.3l-4.2 4.2c-4.3 4.3-9.1 7.7-14.3 10.4-1.2-1.9-2.5-3.8-4.2-5.5-22-22-33.5-51.8-32.4-83.7 1.1-31.1 14.3-61.4 36.2-83.3l8.4-8.4c22.8-22.8 53.3-35.4 85.8-35.4s63 12.6 85.8 35.4l212.8 212.8c47.2 47.4 47.2 124.4-0.1 171.7z" p-id="6071" fill="#036EB8"></path></svg>