<?xml version="1.0" standalone="no"?><!DOCTYPE svg PUBLIC "-//W3C//DTD SVG 1.1//EN" "http://www.w3.org/Graphics/SVG/1.1/DTD/svg11.dtd"><svg t="1573613233123" class="icon" viewBox="0 0 1047 1024" version="1.1" xmlns="http://www.w3.org/2000/svg" p-id="3827" xmlns:xlink="http://www.w3.org/1999/xlink" width="18.404296875" height="18"><defs><style type="text/css"></style></defs><path d="M523.907 1024C235.758 1024 0 795.386 0 512S235.758 0 523.907 0s523.907 228.614 523.907 512-235.758 512-523.907 512z m0-952.558C273.86 71.442 71.442 269.098 71.442 512S273.86 952.558 523.907 952.558 976.372 754.902 976.372 512 773.953 71.442 523.907 71.442z" p-id="3828" fill="#c9191d"></path><path d="M352.447 488.186H719.18c19.052 0 35.721 16.67 35.721 35.721s-16.67 35.72-35.72 35.72H352.446c-19.052 0-35.721-16.669-35.721-35.72s16.67-35.721 35.72-35.721z" p-id="3829" fill="#c9191d"></path></svg>