<?xml version="1.0" standalone="no"?><!DOCTYPE svg PUBLIC "-//W3C//DTD SVG 1.1//EN" "http://www.w3.org/Graphics/SVG/1.1/DTD/svg11.dtd"><svg t="1565173320750" class="icon" viewBox="0 0 1024 1024" version="1.1" xmlns="http://www.w3.org/2000/svg" p-id="1119" xmlns:xlink="http://www.w3.org/1999/xlink" width="20" height="20"><defs><style type="text/css"></style></defs><path d="M562.95619 97.03619c34.133333-46.567619 78.750476-103.131429 144.335239-91.67238 94.110476 24.137143 216.990476 130.438095 142.140952 233.569523-158.232381 215.771429-321.584762 428.129524-482.255238 642.438096-28.769524 42.910476-84.358095 44.617143-129.219048 58.758095 258.194286-12.434286 516.87619-2.681905 775.314286-5.36381-0.24381 15.60381-0.731429 46.811429-0.731429 62.415238-329.874286-0.24381-659.504762 0-989.135238-0.243809 0-15.60381 0.24381-46.567619 0.24381-62.171429 17.798095 0 53.881905-0.24381 71.68-0.243809 4.388571-73.386667-11.946667-150.186667 7.314286-221.622857 149.211429-207.969524 308.419048-409.35619 460.31238-615.862858m3.169524 100.693334c50.712381 38.034286 101.180952 76.8 152.137143 114.834286 32.182857-46.08 75.580952-86.79619 94.110476-140.921905-12.190476-55.344762-75.093333-95.573333-127.75619-105.569524-55.588571 24.380952-79.969524 88.015238-118.491429 131.657143M156.281905 741.424762c0.24381 52.175238 0.487619 104.594286 0.487619 156.769524 60.464762-22.186667 140.434286-18.285714 178.95619-77.531429 114.346667-153.35619 230.15619-305.737143 344.990476-458.605714-50.712381-38.521905-101.912381-76.55619-152.868571-115.078095-123.12381 165.546667-248.198095 329.386667-371.565714 494.445714z" p-id="1120" fill="#8a8a8a"></path></svg>