<?xml version="1.0" standalone="no"?><!DOCTYPE svg PUBLIC "-//W3C//DTD SVG 1.1//EN" "http://www.w3.org/Graphics/SVG/1.1/DTD/svg11.dtd"><svg t="1584613533195" class="icon" viewBox="0 0 1024 1024" version="1.1" xmlns="http://www.w3.org/2000/svg" p-id="34088" xmlns:xlink="http://www.w3.org/1999/xlink" width="32" height="32"><defs><style type="text/css"></style></defs><path d="M49.152 216.362667c-27.306667 64.853333-35.84 109.226667-38.698667 180.992-1.408 35.072 2.986667 65.024 13.098667 107.392l3.925333 14.805333c6.997333 24.533333 16.170667 48.256 27.392 70.997333l6.698667 13.013334-0.213333 0.469333 7.936 13.44c30.634667 51.968 50.816 83.114667 72.021333 112l15.36 20.522667c11.648 15.36 21.12 26.88 32.810667 39.381333 32.554667 34.816 70.741333 70.826667 102.826666 93.653333 35.2 24.874667 72.149333 47.872 99.242667 61.610667 4.053333 2.048 8.106667 3.968 12.544 5.973333l22.698667 9.685334 12.586666 5.248c18.517333 7.850667 71.338667 22.570667 94.890667 24.832 58.538667 5.802667 127.701333 2.133333 174.72-11.733334l38.912-11.690666c31.061333-9.557333 50.432-16.298667 65.792-22.869334l4.053333-1.792c20.864-9.258667 33.749333-17.792 58.624-39.253333l13.525334-11.861333c18.389333-15.530667 34.944-34.005333 48.725333-54.528l8.917333-13.994667c15.658667-25.301333 24.533333-46.037333 38.101334-91.818667 3.242667-11.008 7.338667-37.12 7.509333-48a189.226667 189.226667 0 0 0-1.194667-28.458666l-2.858666-23.381334a219.093333 219.093333 0 0 0-0.896-6.101333 122.624 122.624 0 0 0-14.336-42.453333c-20.096-35.754667-51.242667-66.688-100.778667-98.218667a355.584 355.584 0 0 0-14.336-8.618667l-7.978667-4.437333c-13.354667-7.296-63.530667-32.512-71.253333-36.565333l-9.386667-5.12a194.346667 194.346667 0 0 1-7.466666-4.394667l-6.101334-4.053333-2.944-2.133334c-4.010667-2.944-33.877333-27.392-50.261333-40.106666A390.314667 390.314667 0 0 1 650.24 329.386667l-9.216-10.666667c-24.661333-29.098667-37.248-51.2-59.050667-102.442667l-17.194666-41.472c-29.994667-73.472-56.576-110.506667-112.042667-136.405333l-8.106667-3.626667C288-32 124.16 38.613333 49.109333 216.362667z m372.693333-128.384c43.861333 18.773333 63.146667 44.458667 89.344 108.714666l13.653334 33.152c29.525333 70.314667 44.032 95.061333 82.133333 137.941334 14.08 15.914667 29.866667 31.146667 47.402667 45.781333l63.146666 50.56 1.706667 1.28c2.773333 2.048 5.504 3.925333 8.277333 5.802667 5.546667 3.669333 11.52 7.253333 19.114667 11.349333l16.341333 8.533333c17.749333 9.002667 50.389333 25.514667 60.074667 30.805334 7.253333 3.968 13.525333 7.637333 19.029333 11.093333 41.898667 26.709333 66.261333 50.901333 81.322667 77.696 3.242667 5.76 5.248 11.264 6.698667 18.005333l1.365333 7.68 2.133333 17.066667c1.664 12.586667 2.005333 17.877333 1.749334 28.16-0.085333 5.845333-3.413333 26.88-5.12 32.896l-5.333334 17.28c-9.130667 28.8-15.701333 43.008-26.453333 60.330667l-2.389333 3.84c-9.941333 16.384-21.888 31.146667-35.584 44.032l-20.394667 18.005333c-19.84 17.237333-29.141333 23.722667-42.154667 29.866667l-10.965333 4.736c-18.133333 7.424-44.8 16.042667-94.293333 30.592-38.997333 11.52-100.992 14.805333-152.746667 9.685333-15.786667-1.536-56.832-12.714667-73.941333-18.986667l-24.832-10.24a354.133333 354.133333 0 0 1-23.466667-10.581333c-24.234667-12.288-58.88-33.877333-91.861333-57.173333-28.16-20.053333-63.957333-53.76-94.08-86.016a379.648 379.648 0 0 1-22.912-26.88l-16.298667-21.546667-4.608-6.229333a1071.274667 1071.274667 0 0 1-55.808-85.248l-5.034667-8.405334-7.893333-13.568a360.064 360.064 0 0 1-39.424-96.853333c-8.874667-37.418667-12.672-62.890667-11.52-91.477333 2.602667-65.28 9.813333-103.04 34.218667-160.853334C163.797333 93.312 289.536 36.522667 413.397333 84.565333l8.448 3.413334z" p-id="34089" fill="#036EB8"></path><path d="M512.725333 308.010667c-3.925333-16.213333-16.896-25.045333-28.928-19.754667a21.76 21.76 0 0 0-6.698666 4.693333c-20.224 20.736-30.08 55.082667-25.386667 88.746667 4.096 28.245333 12.288 53.077333 24.746667 74.581333 14.250667 24.618667 34.133333 44.928 59.690666 60.714667 21.333333 13.226667 46.293333 8.832 64.554667-11.050667 9.770667-10.666667 11.264-29.994667 3.328-43.136a26.581333 26.581333 0 0 0-5.802667-6.826666 227.84 227.84 0 0 1-52.053333-62.122667 319.744 319.744 0 0 1-33.450667-85.845333z" p-id="34090" fill="#036EB8"></path></svg>