<?xml version="1.0" standalone="no"?><!DOCTYPE svg PUBLIC "-//W3C//DTD SVG 1.1//EN" "http://www.w3.org/Graphics/SVG/1.1/DTD/svg11.dtd"><svg t="1585032639043" class="icon" viewBox="0 0 1028 1024" version="1.1" xmlns="http://www.w3.org/2000/svg" p-id="3514" xmlns:xlink="http://www.w3.org/1999/xlink" width="32.125" height="32"><defs><style type="text/css"></style></defs><path d="M514.906 0C231.93 0 2.583 227.987 2.583 509.267c0 281.28 229.36 509.263 512.322 509.263 282.936 0 512.297-227.982 512.297-509.263C1027.203 227.995 797.841 0 514.906 0zM514.82 952.362c-244.411 0-442.544-198.134-442.544-442.544 0-244.411 198.134-442.544 442.544-442.544 244.41 0 442.544 198.134 442.544 442.544C957.364 754.229 759.23 952.362 514.82 952.362zM312.797 506.82m-64.507 0a64.507 64.507 0 1 0 129.014 0 64.507 64.507 0 1 0-129.014 0ZM528.818 506.82m-64.507 0a64.507 64.507 0 1 0 129.014 0 64.507 64.507 0 1 0-129.014 0ZM723.838 506.82m-64.507 0a64.507 64.507 0 1 0 129.014 0 64.507 64.507 0 1 0-129.014 0Z" p-id="3515" fill="#036EB8"></path></svg>