<?xml version="1.0" standalone="no"?><!DOCTYPE svg PUBLIC "-//W3C//DTD SVG 1.1//EN" "http://www.w3.org/Graphics/SVG/1.1/DTD/svg11.dtd"><svg t="1584598221875" class="icon" viewBox="0 0 1024 1024" version="1.1" xmlns="http://www.w3.org/2000/svg" p-id="2389" width="32" height="32" xmlns:xlink="http://www.w3.org/1999/xlink"><defs><style type="text/css"></style></defs><path d="M136.7 400h106.7c16.9 0 30.7-13.7 30.7-30.7v-22.7c0-16.9-13.7-30.7-30.7-30.7H136.7c-16.9 0-30.7 13.7-30.7 30.7v22.7c0 17 13.7 30.7 30.7 30.7zM274 677.3v-22.7c0-16.9-13.7-30.7-30.7-30.7H136.7c-16.9 0-30.7 13.7-30.7 30.7v22.7c0 16.9 13.7 30.7 30.7 30.7h106.7c16.9 0 30.6-13.7 30.6-30.7z" fill="#1296db" p-id="2390"></path><path d="M862 64H246c-30.9 0-56 25.1-56 56v168h66.3c25.3 0 45.7 20.5 45.7 45.7v48.6c0 25.3-20.5 45.7-45.7 45.7H190v168h66.3c25.3 0 45.7 20.5 45.7 45.7v48.6c0 25.3-20.5 45.7-45.7 45.7H190v168c0 30.9 25.1 56 56 56h616c30.9 0 56-25.1 56-56V120c0-30.9-25.1-56-56-56zM472.3 204.1c49.8-27.3 109.7 24.4 109.7 24.4s59.9-51.7 109.7-24.4c21.4 11.7 37.8 50.2 26.8 93.6C699.9 371.4 582 435.9 582 435.9s-117.9-64.5-136.5-138.2c-11-43.4 5.4-81.9 26.8-93.6zM716.7 736h-308c-15.5 0-28-12.5-28-28s12.5-28 28-28h308c15.5 0 28 12.5 28 28s-12.5 28-28 28z m56-131.2h-364c-15.5 0-28-12.5-28-28s12.5-28 28-28h364c15.5 0 28 12.5 28 28s-12.5 28-28 28z" fill="#1296db" p-id="2391"></path></svg>