<?xml version="1.0" standalone="no"?><!DOCTYPE svg PUBLIC "-//W3C//DTD SVG 1.1//EN" "http://www.w3.org/Graphics/SVG/1.1/DTD/svg11.dtd"><svg t="1571905850043" class="icon" viewBox="0 0 1024 1024" version="1.1" xmlns="http://www.w3.org/2000/svg" p-id="10208" xmlns:xlink="http://www.w3.org/1999/xlink" width="18" height="18"><defs><style type="text/css"></style></defs><path d="M597.643636 66.094545a118.690909 118.690909 0 0 0-171.287272 0L60.043636 446.836364a80.523636 80.523636 0 0 0-26.530909 87.505454 67.956364 67.956364 0 0 0 66.094546 30.72h57.250909v300.683637c0 72.610909 40.96 129.396364 108.916363 129.396363h155.461819v-310.458182c0-33.512727 4.654545-57.716364 29.789091-57.716363h117.294545c29.323636 0 33.978182 20.945455 33.978182 57.716363v310.458182h155.927273a123.345455 123.345455 0 0 0 115.898181-129.396363v-300.218182H930.909091c43.287273 0 55.389091-20.48 60.043636-30.72a80.523636 80.523636 0 0 0-26.530909-87.505455zM822.923636 512v353.745455c0 33.512727-32.116364 79.127273-66.094545 79.127272h-97.745455v-260.189091c0-69.818182-21.410909-112.174545-89.367272-112.174545H455.214545c-67.956364 0-87.04 46.545455-87.04 112.174545v260.189091H265.309091c-33.978182 0-55.389091-46.545455-55.389091-79.127272V512H80.058182a264.378182 264.378182 0 0 1 20.945454-28.858182L465.454545 107.985455a85.643636 85.643636 0 0 1 46.545455-27.927273 93.090909 93.090909 0 0 1 49.338182 27.927273l361.658182 375.621818c6.050909 6.050909 24.203636 25.134545 26.530909 28.858182z m0 0" p-id="10209" fill="#999999"></path></svg>