<?xml version="1.0" standalone="no"?><!DOCTYPE svg PUBLIC "-//W3C//DTD SVG 1.1//EN" "http://www.w3.org/Graphics/SVG/1.1/DTD/svg11.dtd"><svg t="1558877614670" class="icon" style="" viewBox="0 0 1024 1024" version="1.1" xmlns="http://www.w3.org/2000/svg" p-id="2151" xmlns:xlink="http://www.w3.org/1999/xlink" width="22" height="22"><defs><style type="text/css"></style></defs><path d="M102.4 102.4h819.2a91.02222187 91.02222187 0 0 1 91.02222187 91.02222187v637.15555626a91.02222187 91.02222187 0 0 1-91.02222187 91.02222187H102.4a91.02222187 91.02222187 0 0 1-91.02222187-91.02222187V193.42222187a91.02222187 91.02222187 0 0 1 91.02222187-91.02222187z m182.0444448 364.08888853a91.02222187 91.02222187 0 1 0 0-182.04444373 91.02222187 91.02222187 0 0 0 0 182.04444373z m0 45.51111147a182.0444448 182.0444448 0 0 0-182.0444448 182.0444448 45.51111147 45.51111147 0 0 0 45.51111147 45.5111104h273.06666666a45.51111147 45.51111147 0 0 0 45.5111104-45.5111104 182.0444448 182.0444448 0 0 0-182.04444373-182.0444448z m318.57777707-136.53333333a45.51111147 45.51111147 0 0 0 0 91.02222186h273.06666666a45.51111147 45.51111147 0 0 0 0-91.02222186h-273.06666666z m0 182.0444448a45.51111147 45.51111147 0 0 0 0 91.02222186h273.06666666a45.51111147 45.51111147 0 0 0 0-91.02222186h-273.06666666z" p-id="2152" fill="#8a8a8a"></path></svg>