<?xml version="1.0" standalone="no"?><!DOCTYPE svg PUBLIC "-//W3C//DTD SVG 1.1//EN" "http://www.w3.org/Graphics/SVG/1.1/DTD/svg11.dtd"><svg t="1584613376882" class="icon" viewBox="0 0 1024 1024" version="1.1" xmlns="http://www.w3.org/2000/svg" p-id="33699" xmlns:xlink="http://www.w3.org/1999/xlink" width="32" height="32"><defs><style type="text/css"></style></defs><path d="M824.932 561.845c8.003-29.928 12.068-60.914 12.068-92.245 0-48.143-9.428-94.85-28.021-138.825-17.956-42.466-43.659-80.601-76.396-113.343-32.734-32.742-70.858-58.449-113.313-76.408C575.31 122.429 528.621 113 480.5 113c-48.119 0-94.808 9.428-138.769 28.022-42.453 17.957-80.577 43.66-113.313 76.396s-58.439 70.86-76.396 113.313C133.428 374.692 124 421.381 124 469.5s9.428 94.808 28.022 138.769c17.957 42.453 43.66 80.577 76.396 113.312 32.736 32.736 70.86 58.439 113.313 76.396C385.692 816.572 432.381 826 480.5 826c16.249 0 32.827-1.158 49.429-3.43C567.44 866.161 621.309 891 679.1 891c52.613 0 102.064-20.476 139.244-57.656 37.18-37.18 57.656-86.631 57.656-139.244 0-49.376-18.074-95.996-51.068-132.255z m-575.3 138.523C187.962 638.699 154 556.709 154 469.5s33.962-169.2 95.632-230.868C311.3 176.962 393.291 143 480.5 143c87.213 0 169.203 33.967 230.867 95.643C773.037 300.325 807 382.347 807 469.6c0 31.4-4.438 62.41-13.192 92.173-17.197 58.564-50.561 111.087-96.483 151.888-35.17 31.249-76.31 54.326-120.703 67.968a324.867 324.867 0 0 1-42.943 10.067l-0.038 0.006C515.817 794.554 497.939 796 480.5 796c-87.209 0-169.199-33.963-230.868-95.632zM679.1 861c-42.945 0-83.347-16.177-114.087-45.072 0.968-0.235 1.931-0.484 2.896-0.727 0.593-0.149 1.187-0.294 1.778-0.446 3.865-0.994 7.71-2.052 11.533-3.175 0.277-0.081 0.553-0.167 0.83-0.249 1.636-0.485 3.268-0.98 4.895-1.487 0.437-0.137 0.873-0.277 1.31-0.416 1.486-0.47 2.969-0.948 4.448-1.438 0.45-0.149 0.899-0.3 1.348-0.45a368.877 368.877 0 0 0 4.513-1.547c0.376-0.132 0.753-0.263 1.128-0.396a355.186 355.186 0 0 0 5.034-1.826l0.518-0.191c40.935-15.269 78.898-38.047 112.003-67.451 42.301-37.574 74.837-84.287 95.255-136.408l0.021-0.053a344.662 344.662 0 0 0 1.491-3.854C834.783 624.167 846 658.277 846 694.1c0 92.029-74.871 166.9-166.9 166.9z" fill="#036EB8" p-id="33700"></path><path d="M600.606 517.207l0.478-0.501c11.521-12.635 17.866-29.081 17.866-46.306 0-17.225-6.345-33.67-17.866-46.306l-0.232-0.256-72.646-72.645C515.507 338.494 498.884 331.5 481.4 331.5c-17.484 0-34.107 6.994-46.806 19.693l-72.4 72.4c-26.247 26.247-26.247 67.366 0 93.613l72.4 72.399 0.026 0.026c13.145 13.081 29.985 19.618 46.818 19.618 16.841 0 33.674-6.55 46.768-19.645l72.4-72.397zM455.8 568.387l-72.394-72.393c-14.59-14.591-14.59-36.596 0-51.187l72.4-72.4C462.84 365.373 471.929 361.5 481.4 361.5s18.56 3.873 25.593 10.906l72.136 72.136c13.056 14.562 13.056 37.154 0 51.716l-72.136 72.136c-14.548 14.549-36.551 14.544-51.193-0.007z" fill="#036EB8" p-id="33701"></path></svg>