<?xml version="1.0" standalone="no"?><!DOCTYPE svg PUBLIC "-//W3C//DTD SVG 1.1//EN" "http://www.w3.org/Graphics/SVG/1.1/DTD/svg11.dtd"><svg t="1572418909980" class="icon" viewBox="0 0 1024 1024" version="1.1" xmlns="http://www.w3.org/2000/svg" p-id="2068" xmlns:xlink="http://www.w3.org/1999/xlink" width="18" height="18"><defs><style type="text/css"></style></defs><path d="M750.509317 610.583851c12.720497 12.720497 38.161491 6.360248 44.521739-12.720497 6.360248-6.360248 6.360248-19.080745 6.360248-25.440994 0-6.360248-6.360248-19.080745-12.720497-19.080745-19.080745-12.720497-38.161491-25.440994-63.602484-31.801242 25.440994-25.440994 50.881988-57.242236 63.602484-95.403727 19.080745-38.161491 25.440994-76.322981 25.440994-120.844721C820.47205 133.565217 680.546584 0 508.819876 0 337.093168 0 203.52795 139.925466 203.52795 311.652174c0 82.68323 31.801242 159.006211 89.043479 216.248447-178.086957 76.322981-292.571429 254.409938-292.571429 451.57764 0 19.080745 12.720497 31.801242 31.801242 31.801242s31.801242-12.720497 31.801242-31.801242C63.602484 801.391304 184.447205 636.024845 349.813665 572.42236c101.763975 57.242236 222.608696 50.881988 318.012422 0 31.801242 12.720497 57.242236 25.440994 82.68323 38.161491zM508.819876 546.981366c-133.565217 0-241.689441-108.124224-241.689441-235.329192S375.254658 69.962733 508.819876 69.962733c133.565217 0 241.689441 108.124224 241.689441 235.329192 0 31.801242-6.360248 63.602484-19.080746 95.403727-12.720497 25.440994-31.801242 50.881988-50.881987 76.322982C636.024845 521.540373 572.42236 546.981366 508.819876 546.981366z m470.658385 254.409938h-108.124224v-108.124223c0-19.080745-19.080745-38.161491-38.16149-38.161491s-38.161491 19.080745-38.161491 38.161491v108.124223h-108.124224c-19.080745 0-38.161491 19.080745-38.16149 38.161491s19.080745 38.161491 38.16149 38.161491h108.124224v108.124223c0 19.080745 19.080745 38.161491 38.161491 38.161491s38.161491-19.080745 38.16149-38.161491v-108.124223h108.124224c19.080745 0 38.161491-19.080745 38.161491-38.161491s-19.080745-38.161491-38.161491-38.161491z" p-id="2069" fill="#c9191d"></path></svg>