<?xml version="1.0" standalone="no"?><!DOCTYPE svg PUBLIC "-//W3C//DTD SVG 1.1//EN" "http://www.w3.org/Graphics/SVG/1.1/DTD/svg11.dtd"><svg t="1571906283577" class="icon" viewBox="0 0 1183 1024" version="1.1" xmlns="http://www.w3.org/2000/svg" p-id="11060" xmlns:xlink="http://www.w3.org/1999/xlink" width="20.794921875" height="18"><defs><style type="text/css"></style></defs><path d="M1129.585845 489.737921L674.145176 978.749721c-19.6233 21.340601-47.141994 33.738673-79.519392 35.874828h-4.000054a117.572259 117.572259 0 0 1-77.927748-30.325015l-5.884896-5.884896-465.702586-490.896642c-38.743976-42.450832-41.173328-106.59829-5.780183-149.300434l229.929789-285.239431C287.857268 24.852099 319.564499 9.375451 354.538791 9.375451h463.838688c33.843386 0 68.021856 16.670381 89.194914 43.497967l229.908846 285.218488c35.079005 44.628871 31.749117 108.399361-7.895394 151.646015z m-38.220409-112.818268l-0.712051-1.026192L860.744539 90.695915c-10.51323-13.110124-26.345903-20.921747-42.36706-20.921747H354.538791c-16.000215 0-31.853831 7.832566-42.388004 20.94269L84.399039 375.851575c-16.523782 21.926996-15.309106 51.121105 2.931976 69.29936l468.487965 493.723906c11.979218 8.837815 24.502947 13.277665 36.901019 13.277665 13.843118 0 27.120783-5.633583 37.361758-15.832674L1085.878452 446.931064a58.451046 58.451046 0 0 0 5.486984-70.011411zM641.265153 694.515539a71.707769 71.707769 0 0 1-50.597538 21.047403 66.095128 66.095128 0 0 1-45.257152-17.759401l-3.769684-3.790626-225.364282-236.94559a27.560579 27.560579 0 0 1-6.219979-18.282968c0.167542-6.722603 2.72255-12.565614 7.204286-16.481896 5.52887-4.879647 11.83262-7.455597 18.30391-7.455598 7.1624 0 14.241029 3.120461 19.916498 8.79593l235.207346 247.437877 229.196794-243.64725c5.612641-5.570755 13.047296-8.754044 20.775148-8.754045 6.324692 0 12.481843 2.17804 17.822229 6.30375 8.754044 7.685967 8.858758 24.356348-0.209427 34.639209L641.265153 694.515539z" fill="#c9191d" p-id="11061"></path></svg>