<?xml version="1.0" standalone="no"?><!DOCTYPE svg PUBLIC "-//W3C//DTD SVG 1.1//EN" "http://www.w3.org/Graphics/SVG/1.1/DTD/svg11.dtd"><svg t="1572419018396" class="icon" viewBox="0 0 1024 1024" version="1.1" xmlns="http://www.w3.org/2000/svg" p-id="4830" xmlns:xlink="http://www.w3.org/1999/xlink" width="18" height="18"><defs><style type="text/css"></style></defs><path d="M483.085 565.138l-72.15-72.15c-18.752-18.752-18.752-49.154 0-67.906L678.777 157.24c30.997-30.997 81.254-30.997 112.252 0l75.731 75.731c30.997 30.997 30.997 81.254 0 112.252L746.523 465.459c-12.501 12.501-12.501 32.769 0 45.271 12.501 12.501 32.769 12.501 45.271 0l130.428-130.428c50.371-50.371 50.371-132.038 0-182.409l-96.114-96.114c-50.371-50.371-132.038-50.371-182.409 0L365.665 379.812c-43.754 43.754-43.754 114.693 0 158.447l72.15 72.15c12.501 12.501 32.769 12.501 45.271 0 12.5-12.501 12.5-32.77-0.001-45.271z" fill="#c9191d" p-id="4831"></path><path d="M540.915 458.862l72.15 72.15c18.752 18.752 18.752 49.154 0 67.906L345.223 866.759c-30.997 30.997-81.254 30.997-112.252 0l-75.731-75.731c-30.997-30.997-30.997-81.254 0-112.252L277.476 558.54c12.501-12.501 12.501-32.769 0-45.271-12.501-12.501-32.769-12.501-45.271 0L101.778 643.698c-50.371 50.371-50.371 132.038 0 182.409l96.114 96.114c50.371 50.371 132.038 50.371 182.409 0l278.033-278.034c43.754-43.754 43.754-114.693 0-158.447l-72.15-72.15c-12.501-12.501-32.769-12.501-45.271 0-12.499 12.502-12.499 32.771 0.002 45.272z" fill="#c9191d" p-id="4832"></path></svg>