<?xml version="1.0" standalone="no"?><!DOCTYPE svg PUBLIC "-//W3C//DTD SVG 1.1//EN" "http://www.w3.org/Graphics/SVG/1.1/DTD/svg11.dtd"><svg t="1584782212903" class="icon" viewBox="0 0 1024 1024" version="1.1" xmlns="http://www.w3.org/2000/svg" p-id="19386" xmlns:xlink="http://www.w3.org/1999/xlink" width="32" height="32"><defs><style type="text/css"></style></defs><path d="M892.1 632.9c-0.42-0.43-0.85-0.86-1.28-1.28-47.12-46.39-122.23-48.04-171.34-3.77-0.03-0.02-0.06-0.05-0.08-0.07l-58.63 48.77c-5.63 4.68-13.98 3.91-18.66-1.71s-3.91-13.98 1.71-18.66l53.36-44.38c-47.55-26.84-108.6-19.98-149.04 19.83-48.1 47.47-48.62 124.95-1.15 173.05 0.38 0.39 0.76 0.77 1.15 1.15l143.54 142.24c15.08 15.35 39.76 15.57 55.11 0.49 0.16-0.16 0.33-0.32 0.49-0.49l143.54-142.11c48.14-47.44 48.71-124.92 1.28-173.06z" p-id="19387" fill="#036EB8"></path><path d="M403.603219 440.419458a178.45 178.45 0 1 0 252.362006-252.370815 178.45 178.45 0 1 0-252.362006 252.370815Z" p-id="19388" fill="#036EB8"></path><path d="M573.91 560.73c50.09-8.85 96.2-32.75 132.91-69.47 47.29-47.29 73.33-110.16 73.33-177.03s-26.04-129.75-73.33-177.03c-47.29-47.29-110.16-73.33-177.03-73.33S400.05 89.91 352.76 137.2c-47.29 47.29-73.33 110.16-73.33 177.03s26.04 129.75 73.33 177.03c9.72 9.72 20.22 18.63 31.38 26.65-7.46 2.68-14.85 5.57-22.16 8.65-51.34 21.71-97.44 52.79-137.02 92.37-39.58 39.58-70.66 85.68-92.37 137.02C110.1 809.13 98.7 865.59 98.7 923.77c0 19.86 16.1 35.96 35.96 35.96h506.33c33.44 0-173.7-90.25-174.8-233.14-1.05-134.71 96.54-163.05 107.72-165.86z" p-id="19389" fill="#036EB8"></path></svg>