<?xml version="1.0" standalone="no"?><!DOCTYPE svg PUBLIC "-//W3C//DTD SVG 1.1//EN" "http://www.w3.org/Graphics/SVG/1.1/DTD/svg11.dtd"><svg t="1565078285025" class="icon" viewBox="0 0 1024 1024" version="1.1" xmlns="http://www.w3.org/2000/svg" p-id="5033" xmlns:xlink="http://www.w3.org/1999/xlink" width="16" height="16"><defs><style type="text/css"></style></defs><path d="M412.953358 962.267475H163.531079a62.372593 62.372593 0 0 1-62.331738-62.890094V123.410576A62.999042 62.999042 0 0 1 163.939633 60.466007h682.489626a62.549633 62.549633 0 0 1 62.644963 62.522396v294.472178a30.219385 30.219385 0 1 0 60.43877 0V122.988403a122.961166 122.961166 0 0 0-36.116183-87.008405A122.974785 122.974785 0 0 0 846.320312 0.040855H163.939633A123.396957 123.396957 0 0 0 40.801427 123.410576v775.966805a122.824981 122.824981 0 0 0 122.729652 123.315246H412.994213a30.219385 30.219385 0 0 0 0-60.43877z m0 0" fill="#515151" p-id="5034"></path><path d="M256.436281 293.777636h495.98468a30.219385 30.219385 0 0 0 0-60.43877H256.395426a30.219385 30.219385 0 0 0 0 60.43877z m0 185.94659h495.98468a30.219385 30.219385 0 0 0 0-60.43877H256.395426a30.219385 30.219385 0 0 0 0 60.43877z m0 185.932972h170.598575a30.219385 30.219385 0 1 0 0-60.425152H256.436281a30.219385 30.219385 0 1 0 0 60.425152z m494.050857 300.32812a176.645175 176.645175 0 1 0-176.645175-176.631557 176.631557 176.631557 0 0 0 176.645175 176.631557z m0 55.835727a232.426428 232.426428 0 1 1 232.371954-232.480902 232.426428 232.426428 0 0 1-232.371954 232.426428z m0 0" fill="#515151" p-id="5035"></path><path d="M766.979105 698.246196a27.917864 27.917864 0 0 0-55.835727 0v109.083946a27.904245 27.904245 0 0 0 27.890626 27.890626h90.44026a27.917864 27.917864 0 1 0 0-55.835727h-62.495159z m0 0" fill="#515151" p-id="5036"></path></svg>