<?xml version="1.0" standalone="no"?><!DOCTYPE svg PUBLIC "-//W3C//DTD SVG 1.1//EN" "http://www.w3.org/Graphics/SVG/1.1/DTD/svg11.dtd"><svg t="1584412399007" class="icon" viewBox="0 0 1024 1024" version="1.1" xmlns="http://www.w3.org/2000/svg" p-id="2608" xmlns:xlink="http://www.w3.org/1999/xlink" width="20" height="20"><defs><style type="text/css"></style></defs><path d="M67.184 512.186v408.78a84.544 84.544 0 0 0 1.864 19.011c4.473 19.235 14.91 27.511 34.891 27.511h557.59c22.889 0 37.277 19.757 28.331 39.44a26.392 26.392 0 0 1-23.186 16.326h-10.662c-184.074 0-368.073-0.969-552.148 0.597a92.149 92.149 0 0 1-92.67-90.956v-830.31a137.925 137.925 0 0 1 5.517-41.004A85.663 85.663 0 0 1 102.448 0.073h709.457c51.293 0 88.347 34.22 92.745 85.514 0.448 5.293 0.82 10.661 0.82 16.03v341.308c0 12.6-1.49 24.156-13.717 31.536a27.66 27.66 0 0 1-41.303-15.432 61.954 61.954 0 0 1-1.79-16.924V101.84a73.958 73.958 0 0 0-3.355-24.081 27.585 27.585 0 0 0-27.734-20.8h-706.4c-32.059 0-43.987 11.928-43.987 44.732q-0.075 205.024 0 410.495z" p-id="2609" fill="#036EB8"></path><path d="M817.646 922.532a195.108 195.108 0 1 1 195.108-194.885 195.034 195.034 0 0 1-195.108 194.885z m149.108-194.437a149.481 149.481 0 1 0-150.972 149.108 149.705 149.705 0 0 0 151.047-149.034zM458.518 226.196h253.485c13.792 0 24.453 4.25 29.821 17.52a28.181 28.181 0 0 1-24.304 38.769 74.554 74.554 0 0 1-7.456 0H205.407a30.716 30.716 0 0 1-30.194-15.806 27.734 27.734 0 0 1 25.646-40.334c33.848-0.373 67.696 0 101.543 0zM390.525 539.92H202.35c-22.366 0-35.562-18.191-28.256-37.874a28.181 28.181 0 0 1 28.555-18.19h377.393a28.256 28.256 0 0 1 28.48 19.83 26.84 26.84 0 0 1-11.706 31.612 45.254 45.254 0 0 1-20.278 4.547c-62.03 0.224-123.984 0.075-186.013 0.075zM249.17 741.663h45.926c17.967 0 29.821 11.63 29.821 27.81A28.33 28.33 0 0 1 294.5 798.25h-91.776a28.927 28.927 0 0 1-30.642-28.703c0-16.104 12.004-27.362 29.822-27.809 15.955-0.298 31.611-0.075 47.267-0.075z" p-id="2610" fill="#036EB8"></path><path d="M794.758 687.463v-38.47a22.366 22.366 0 0 1 44.732 0c0 18.862 0.373 37.799 0 56.66a20.279 20.279 0 0 0 7.977 18.267c19.31 15.73 38.023 32.282 57.034 48.46a25.721 25.721 0 0 1 11.78 23.708 23.037 23.037 0 0 1-37.724 14.314q-38.694-32.058-76.12-65.607a29.002 29.002 0 0 1-7.456-17.819c-0.969-13.047-0.223-26.094-0.223-39.513z" p-id="2611" fill="#036EB8"></path></svg>