<?xml version="1.0" standalone="no"?><!DOCTYPE svg PUBLIC "-//W3C//DTD SVG 1.1//EN" "http://www.w3.org/Graphics/SVG/1.1/DTD/svg11.dtd"><svg t="1584617468415" class="icon" viewBox="0 0 1024 1024" version="1.1" xmlns="http://www.w3.org/2000/svg" p-id="43339" width="32" height="32" xmlns:xlink="http://www.w3.org/1999/xlink"><defs><style type="text/css"></style></defs><path d="M775.91296 740.957091h78.941091a33.512727 33.512727 0 0 1 33.233454 33.698909c0 18.618182-14.894545 33.652364-33.233454 33.652364h-112.174546a33.512727 33.512727 0 0 1-32.34909-41.565091 34.304 34.304 0 0 1-0.93091-7.912728v-111.569454c0-18.618182 14.894545-33.698909 33.233455-33.698909a33.512727 33.512727 0 0 1 33.28 33.698909v93.696z m62.324364-276.898909a33.512727 33.512727 0 0 1-33.233455-33.652364V110.312727c0-4.654545-3.723636-8.424727-8.331636-8.424727H121.344233a8.378182 8.378182 0 0 0-8.285091 8.378182v791.738182c0 4.654545 3.723636 8.378182 8.285091 8.378181h300.264727a33.512727 33.512727 0 0 1 33.233455 33.69891c0 18.618182-14.894545 33.698909-33.233455 33.698909H79.779142A33.512727 33.512727 0 0 1 46.545687 944.128V68.235636c0-18.618182 14.894545-33.698909 33.233455-33.698909H838.283869a33.512727 33.512727 0 0 1 33.233455 33.698909v362.123637c0 18.618182-14.894545 33.698909-33.233455 33.698909zM199.214778 251.392h489.378909a33.512727 33.512727 0 0 1 33.233455 33.698909c0 18.618182-14.894545 33.698909-33.233455 33.698909H199.214778a33.512727 33.512727 0 0 1-33.233454-33.698909c0-18.618182 14.894545-33.698909 33.233454-33.698909z m5.213091 216.901818h220.253091a33.512727 33.512727 0 0 1 33.233455 33.698909c0 18.618182-14.894545 33.652364-33.233455 33.652364H204.474415a33.512727 33.512727 0 0 1-33.233455-33.652364c0-18.618182 14.894545-33.698909 33.233455-33.698909z m0 216.901818h220.253091a33.512727 33.512727 0 0 1 33.233455 33.652364c0 18.618182-14.894545 33.698909-33.233455 33.698909H204.474415a33.512727 33.512727 0 0 1-33.233455-33.698909c0-18.618182 14.894545-33.698909 33.233455-33.698909z m315.857455-216.901818h45.707636a33.512727 33.512727 0 0 1 33.233455 33.698909c0 18.618182-14.894545 33.652364-33.233455 33.652364h-45.707636a33.512727 33.512727 0 0 1-33.28-33.652364c0-18.618182 14.894545-33.698909 33.28-33.698909z m222.301091 509.533091c-129.675636 0-234.775273-106.542545-234.775273-237.940364s105.099636-237.893818 234.775273-237.893818c129.675636 0 234.821818 106.496 234.821818 237.893818s-105.146182 237.940364-234.821818 237.940364z m0-58.973091c97.559273 0 176.64-80.104727 176.64-178.967273 0-98.816-79.080727-178.967273-176.64-178.967272-97.512727 0-176.593455 80.151273-176.593455 178.967272 0 98.862545 79.080727 178.967273 176.593455 178.967273z" fill="#bfbfbf" p-id="43340"></path></svg>