<?xml version="1.0" standalone="no"?><!DOCTYPE svg PUBLIC "-//W3C//DTD SVG 1.1//EN" "http://www.w3.org/Graphics/SVG/1.1/DTD/svg11.dtd"><svg t="1569747787499" class="icon" viewBox="0 0 1024 1024" version="1.1" xmlns="http://www.w3.org/2000/svg" p-id="22964" xmlns:xlink="http://www.w3.org/1999/xlink" width="30" height="30"><defs><style type="text/css"></style></defs><path d="M933.590386 166.797887c-14.263865-24.228821-29.79663-48.181349-46.595224-71.737858-3.603061-5.059226-7.602142-7.274684-14.143115-6.593162-6.550183 0.706081-8.921183 5.447059-10.213619 10.971889-3.172249 13.713326-6.343475 27.425629-9.515724 41.138956-172.081217-39.36352-351.937514-33.546024-521.709129 17.445324-10.135848 3.025916-17.246803 15.196097-14.290471 24.108071 2.956332 8.903787 15.531741 14.687514 25.211195 11.799744 163.461909-49.095161 336.639087-54.69674 502.32464-16.798595-2.465145 10.671037-4.929266 21.332864-7.40362 31.994692-1.284249 5.550413-1.336438 10.774391 3.40454 14.134929 4.740978 3.361561 8.68787 3.086291 13.70514 0.198521 23.366174-13.480013 47.758724-26.082028 73.125461-37.708833C934.917614 182.355211 937.761382 173.908842 933.590386 166.797887zM633.194758 233.484705c-7.454786-2.706645-15.10093-4.076852-22.693862-4.076852-28.013007 0-52.973492 18.729573-63.59234 47.706535l-65.815985 161.583119c-6.878664-15.841803-19.772322-27.865651-36.338626-33.864272-25.374924-9.17087-52.603055-0.473791-69.022003 20.341281-7.783267-12.773931-19.591197-22.461571-33.890878-27.632337-7.29208-2.638083-14.885012-3.973498-22.590508-3.973498-25.978674 0-49.568952 15.315824-60.179614 38.60525-8.343015-6.317892-17.065677-10.868535-20.659529-12.170181-6.610558-2.39556-13.68672-3.611248-21.004383-3.611248-25.573445 0-48.000224 14.350846-55.82647 35.691897-3.28379 8.946766-80.123852 219.796962-72.582085 284.853653 7.80885 67.608817 24.815175 137.018653 136.794549 177.529299 39.380916 14.255679 75.322499 21.185508 109.859084 21.185508 58.929134 0 114.393353-20.557198 174.555571-64.695464 84.148515-61.740156 106.903775-172.624593 74.694189-233.527684-9.30083-17.58347-17.575284-28.590152-23.324218-35.054377l109.411899-280.045137C684.885024 284.380886 668.593989 246.301616 633.194758 233.484705zM644.495128 312.427662 487.445256 714.39871c-2.818185 7.239891 0.793062 15.384385 8.075933 18.203594 7.29208 2.809999 15.497972-0.775666 18.316158-8.024767l35.743062-91.457991c3.059686 4.593622 6.525624 10.326183 10.265808 17.402345 34.674731 65.548902-16.195867 160.936389-66.445318 197.800995-55.800887 40.941458-104.438631 59.19724-157.747767 59.19724-31.175023 0-63.936171-6.378268-100.18884-19.497053-96.991008-35.097356-110.980627-90.639347-118.349455-154.309458-5.619998-48.550763 49.387827-212.805734 71.056336-272.002974 3.714602-10.110265 15.730263-17.186428 29.236881-17.186428 4.016477 0 7.817036 0.64673 11.316743 1.913583 6.266727 2.266623 15.436574 9.455349 19.806091 13.963013 0 0-9.136078 24.736381-12.308327 33.640168-3.188622 8.903787-0.663102 16.152888 6.41306 18.789948 7.077186 2.63706 13.713326 1.025353 17.893532-9.137101 4.180206-10.153244 23.254633-57.290821 23.254633-57.290821 5.41329-14.765285 19.659759-24.694425 35.467793-24.694425 4.386914 0 8.740058 0.75827 12.919241 2.266623 9.455349 3.421936 17.022699 10.317996 21.280676 19.401886 4.240581 9.05933 4.696975 19.22076 1.276063 28.615735l-0.025583 0.068562c-2.671852 7.300266 1.12973 15.376199 8.463766 18.031679 7.335059 2.654456 15.454994-1.111311 18.125823-8.4126l9.69685-26.425859c7.438413-20.323884 25.684986-30.640857 44.069705-23.979134 9.196453 3.318582 16.307408 9.92914 20.047592 18.608823 3.800559 8.800433 3.947915 18.996656 0.387833 28.701692-0.276293 0.732687-0.473791 1.49198-0.620124 2.266623l-7.800663 42.095747c-1.301645 7.093559 2.991124 14.031575 9.955746 16.048511 6.998391 2.034333 14.368242-1.543146 17.083074-8.222265l99.223862-243.568365c8.455579-23.081695 29.571503-34.726919 50.189076-27.279297C644.417357 267.487124 653.045875 289.077861 644.495128 312.427662z" p-id="22965" fill="#1296db"></path></svg>