<?xml version="1.0" standalone="no"?><!DOCTYPE svg PUBLIC "-//W3C//DTD SVG 1.1//EN" "http://www.w3.org/Graphics/SVG/1.1/DTD/svg11.dtd"><svg t="1584616390830" class="icon" viewBox="0 0 1024 1024" version="1.1" xmlns="http://www.w3.org/2000/svg" p-id="37050" xmlns:xlink="http://www.w3.org/1999/xlink" width="26" height="26"><defs><style type="text/css"></style></defs><path d="M511.9 600.7c-146.7 0-266.1-119.4-266.1-266.1 0-146.7 119.4-266.1 266.1-266.1 146.7-0.1 266.1 119.3 266.1 266 0 146.8-119.4 266.2-266.1 266.2z m0-476.7c-116.1 0-210.6 94.5-210.6 210.6s94.5 210.6 210.6 210.6 210.6-94.5 210.6-210.6S628 124 511.9 124z m118.4 497.8l-118.4 46.5-118.4-46.5c-10.8-4.2-22.4 3.7-22.4 15.3v118.1c0 11.6 11.6 19.5 22.4 15.3L511.9 724l118.4 46.5c10.8 4.2 22.4-3.7 22.4-15.3V637.1c-0.1-11.6-11.7-19.5-22.4-15.3z m0 0" fill="#036EB8" p-id="37051"></path><path d="M835.9 948.5h-648c-38.9 0-70.4-31.5-70.4-70.4v-96.3c0-43.7 29.8-80.8 72.4-90.2l97.7-21.7c12.7-2.8 25.2 5.2 28 17.8 2.8 12.6-5.2 34.6-17.8 37.4l-97.7 21.7c-21 4.7-28.6 13.5-28.6 35v86.9c0 12.9 9.3 25.8 22.3 25.8h630.1c15.7 0 28.5-12.7 28.5-28.5v-84.2c0-21.5-7.6-30.4-28.6-35L726 725.1c-12.6-2.8-20.6-24.8-17.8-37.4s15.3-20.6 28-17.8l97.7 21.7c42.6 9.5 72.4 46.6 72.4 90.2v96.3c0 38.8-31.6 70.4-70.4 70.4z m0 0" fill="#036EB8" p-id="37052"></path></svg>