<?xml version="1.0" standalone="no"?><!DOCTYPE svg PUBLIC "-//W3C//DTD SVG 1.1//EN" "http://www.w3.org/Graphics/SVG/1.1/DTD/svg11.dtd"><svg t="1572420759470" class="icon" viewBox="0 0 1024 1024" version="1.1" xmlns="http://www.w3.org/2000/svg" p-id="12166" xmlns:xlink="http://www.w3.org/1999/xlink" width="18" height="18"><defs><style type="text/css"></style></defs><path d="M902.656 173.056L526.848 47.616a36.352 36.352 0 0 0-22.528 0L128.512 173.056a33.28 33.28 0 0 0-23.552 31.744v386.56c10.752 226.816 382.464 365.568 398.336 371.712a35.328 35.328 0 0 0 24.576 0c15.872-5.632 387.584-144.896 398.336-372.736V204.8a33.28 33.28 0 0 0-23.552-31.744z m-45.568 415.232c-7.68 163.328-280.064 282.624-341.504 307.2-102.4-40.448-334.336-161.28-340.992-307.2V228.352l341.504-113.664 341.504 113.664v358.4z" fill="#c9191d" p-id="12167"></path><path d="M661.504 519.68H362.496a38.4 38.4 0 0 1 0-76.8h298.496a38.4 38.4 0 0 1 0 76.8z" fill="#c9191d" p-id="12168"></path><path d="M512 669.184a38.4 38.4 0 0 1-38.4-38.4V331.776a38.4 38.4 0 0 1 76.8 0v298.496a38.4 38.4 0 0 1-38.4 38.912z" fill="#c9191d" p-id="12169"></path></svg>