<?xml version="1.0" standalone="no"?><!DOCTYPE svg PUBLIC "-//W3C//DTD SVG 1.1//EN" "http://www.w3.org/Graphics/SVG/1.1/DTD/svg11.dtd"><svg t="1561185771376" class="icon" viewBox="0 0 1024 1024" version="1.1" xmlns="http://www.w3.org/2000/svg" p-id="1299" width="16" height="16" xmlns:xlink="http://www.w3.org/1999/xlink"><defs><style type="text/css"></style></defs><path d="M878.4 971.3 751.9 971.3l0-43.6 126.5 0c33.1 0 60-26.9 60-60L938.4 741.3 982 741.3l0 126.5C982 924.9 935.5 971.3 878.4 971.3z" p-id="1300" fill="#8a8a8a"></path><path d="M982 258.3l-43.6 0L938.4 131.8c0-33.1-26.9-60-60-60L751.9 71.8 751.9 28.2l126.5 0c57.1 0 103.6 46.5 103.6 103.6L982 258.3z" p-id="1301" fill="#8a8a8a"></path><path d="M82.4 258.3 38.9 258.3 38.9 131.8c0-57.1 46.5-103.6 103.6-103.6l127 0 0 43.6-127 0c-33.1 0-60 26.9-60 60L82.4 258.3 82.4 258.3z" p-id="1302" fill="#8a8a8a"></path><path d="M269.4 971.3l-127 0c-57.1 0-103.6-46.5-103.6-103.6L38.8 741.3l43.6 0 0 126.5c0 33.1 26.9 60 60 60l127 0L269.4 971.3z" p-id="1303" fill="#8a8a8a"></path><path d="M85.7 477.9l849.4 0 0 43.6-849.4 0 0-43.6Z" p-id="1304" fill="#8a8a8a"></path></svg>