<?xml version="1.0" standalone="no"?><!DOCTYPE svg PUBLIC "-//W3C//DTD SVG 1.1//EN" "http://www.w3.org/Graphics/SVG/1.1/DTD/svg11.dtd"><svg t="1584413724768" class="icon" viewBox="0 0 1024 1024" version="1.1" xmlns="http://www.w3.org/2000/svg" p-id="12644" width="28" height="28" xmlns:xlink="http://www.w3.org/1999/xlink"><defs><style type="text/css"></style></defs><path d="M664 161.6c78.4 0 129.6 51.2 129.6 129.6 0 67.2-64 155.2-124.8 208l-1.6 1.6-1.6 1.6c-33.6 33.6-92.8 68.8-155.2 104-62.4-35.2-121.6-70.4-155.2-104l-1.6-1.6-1.6-1.6c-78.4-70.4-124.8-148.8-124.8-209.6 0-78.4 51.2-129.6 129.6-129.6 40 0 72 16 104 54.4l48 56 48-56c35.2-35.2 67.2-52.8 107.2-52.8m0-64c-62.4 0-110.4 27.2-152 76.8-41.6-48-89.6-76.8-152-76.8-110.4 0-193.6 76.8-193.6 193.6 0 97.6 76.8 193.6 145.6 256 41.6 41.6 110.4 83.2 201.6 131.2 89.6-48 160-89.6 201.6-131.2 62.4-56 145.6-160 145.6-256-1.6-116.8-84.8-193.6-196.8-193.6zM632 958.4c-17.6 0-32-14.4-32-32V739.2l22.4-6.4c142.4-44.8 227.2-126.4 251.2-244.8 3.2-17.6 20.8-28.8 38.4-24 17.6 3.2 28.8 20.8 24 38.4-28.8 136-120 232-272 284.8v139.2c0 17.6-14.4 32-32 32zM392 958.4c-17.6 0-32-14.4-32-32v-139.2c-152-52.8-244.8-152-272-288-3.2-17.6 8-35.2 24-38.4 17.6-3.2 33.6 8 38.4 25.6 24 118.4 108.8 201.6 251.2 246.4l22.4 6.4v187.2c0 17.6-14.4 32-32 32z" p-id="12645" fill="#036EB8"></path></svg>