<?xml version="1.0" standalone="no"?><!DOCTYPE svg PUBLIC "-//W3C//DTD SVG 1.1//EN" "http://www.w3.org/Graphics/SVG/1.1/DTD/svg11.dtd"><svg t="1584605973300" class="icon" viewBox="0 0 1024 1024" version="1.1" xmlns="http://www.w3.org/2000/svg" p-id="4228" xmlns:xlink="http://www.w3.org/1999/xlink" width="32" height="32"><defs><style type="text/css"></style></defs><path d="M512 512m-512 0a512 512 0 1 0 1024 0 512 512 0 1 0-1024 0Z" fill="#0084FF" p-id="4229"></path><path d="M447.506286 721.462857a41.563429 41.563429 0 0 1-30.409143-13.476571l-171.885714-186.185143c-16.64-18.304-16.64-47.670857 0-65.974857 16.969143-18.304 44.178286-18.304 60.818285 0l141.476572 153.362285 270.464-292.918857c16.64-18.285714 43.849143-18.285714 60.818285 0 16.64 18.322286 16.64 47.670857 0 65.974857L477.915429 708.333714c-8.649143 8.630857-19.529143 13.129143-30.409143 13.129143z" fill="#FFFFFF" p-id="4230"></path></svg>