<?xml version="1.0" standalone="no"?><!DOCTYPE svg PUBLIC "-//W3C//DTD SVG 1.1//EN" "http://www.w3.org/Graphics/SVG/1.1/DTD/svg11.dtd"><svg t="1572577389939" class="icon" viewBox="0 0 1024 1024" version="1.1" xmlns="http://www.w3.org/2000/svg" p-id="2001" xmlns:xlink="http://www.w3.org/1999/xlink" width="18" height="18"><defs><style type="text/css"></style></defs><path d="M607.512 547.91c-21.35 0-37.521 19.219-56.891 19.219-19.214 0-103.558-83.126-103.558-103.563 0-20.435 19.219-30.503 19.219-51.702 0-15.253-56.892-108.593-80.227-108.593-23.337 0-80.228 41.638-80.228 80.223 0 111.647 205.903 325.633 334.783 325.633 35.535 0 80.227-37.522 80.227-80.229 0.302-16.013-92.126-80.988-113.325-80.988" p-id="2002" fill="#7e7e7e"></path><path d="M513.332 954.937c-60.181 0-118.57-11.873-173.546-35.289-53.083-22.61-100.75-54.972-141.678-96.187-40.92-41.208-73.047-89.194-95.49-142.629C79.382 625.51 67.601 566.755 67.601 506.2c0-60.556 11.782-119.311 35.017-174.633 22.443-53.434 54.571-101.421 95.49-142.628 40.928-41.216 88.596-73.578 141.678-96.188 54.976-23.416 113.365-35.288 173.546-35.288S631.902 69.335 686.88 92.75c53.083 22.61 100.75 54.972 141.678 96.188 40.92 41.207 73.047 89.194 95.49 142.628 23.236 55.322 35.018 114.077 35.018 174.633 0 60.556-11.782 119.311-35.018 174.633-22.444 53.435-54.57 101.421-95.49 142.629-40.927 41.215-88.595 73.577-141.678 96.187-54.976 23.416-113.366 35.29-173.547 35.29z m0-861.707C287.278 93.23 103.37 278.487 103.37 506.2S287.28 919.167 513.332 919.167c226.055 0 409.963-185.256 409.963-412.968 0-227.712-183.908-412.969-409.963-412.969z" p-id="2003" fill="#7e7e7e"></path></svg>