<?xml version="1.0" standalone="no"?><!DOCTYPE svg PUBLIC "-//W3C//DTD SVG 1.1//EN" "http://www.w3.org/Graphics/SVG/1.1/DTD/svg11.dtd"><svg t="1585316928974" class="icon" viewBox="0 0 1024 1024" version="1.1" xmlns="http://www.w3.org/2000/svg" p-id="3876" xmlns:xlink="http://www.w3.org/1999/xlink" width="32" height="32"><defs><style type="text/css"></style></defs><path d="M554.624 132.8v627.264c0 25.536-17.088 42.624-42.688 42.624s-42.688-17.088-42.688-42.624V145.6L307.136 307.776c-17.088 17.088-42.688 17.088-59.712 0s-17.088-42.688 0-59.712L456.512 38.976A82.432 82.432 0 0 1 576 38.976l209.024 209.088a41.088 41.088 0 0 1 0 59.712 41.216 41.216 0 0 1-59.712 0L554.624 132.8z m384 541.888c0-25.6 17.088-42.624 42.688-42.624 25.536 0 42.688 17.024 42.688 42.624v213.376c0 72.512-55.488 128-128 128H128c-72.512 0-128-55.488-128-128v-213.376c0-25.6 17.088-42.624 42.688-42.624s42.688 17.024 42.688 42.624v213.376c0 25.536 17.088 42.624 42.688 42.624h768c25.536 0 42.624-17.088 42.624-42.624v-213.376z" fill="#bfbfbf" p-id="3877"></path></svg>