<?xml version="1.0" standalone="no"?><!DOCTYPE svg PUBLIC "-//W3C//DTD SVG 1.1//EN" "http://www.w3.org/Graphics/SVG/1.1/DTD/svg11.dtd"><svg t="1584779371827" class="icon" viewBox="0 0 1024 1024" version="1.1" xmlns="http://www.w3.org/2000/svg" p-id="6594" xmlns:xlink="http://www.w3.org/1999/xlink" width="32" height="32"><defs><style type="text/css"></style></defs><path d="M847.127273 674.909091h65.163636v283.927273h-65.163636z" fill="#D6D6D6" p-id="6595"></path><path d="M730.763636 679.563636l148.945455-144.290909 144.290909 144.290909zM260.654545 316.509091c0 37.236364 27.927273 69.818182 69.818182 69.818182 37.236364 0 69.818182-27.927273 69.818182-69.818182 0-37.236364-32.581818-69.818182-69.818182-69.818182S260.654545 279.272727 260.654545 316.509091z" fill="#D6D6D6" p-id="6596"></path><path d="M684.218182 786.618182H69.818182V144.290909h875.054545V465.454545h69.818182V111.709091c0-18.618182-13.963636-32.581818-32.581818-32.581818H41.890909c-23.272727 0-41.890909 18.618182-41.890909 41.890909v702.836363c0 18.618182 13.963636 32.581818 32.581818 32.581819h651.636364v-69.818182z" fill="#D6D6D6" p-id="6597"></path><path d="M754.036364 549.236364l-51.2-134.981819-13.963637-13.963636c-9.309091 0-13.963636 4.654545-18.618182 9.309091L558.545455 581.818182c-4.654545 9.309091-13.963636 9.309091-23.272728 4.654545l-195.490909-93.090909c-9.309091-4.654545-18.618182 0-23.272727 4.654546l-116.363636 176.872727c-4.654545 4.654545-4.654545 13.963636 0 18.618182 4.654545 4.654545 9.309091 9.309091 18.618181 9.309091H605.090909l148.945455-153.6z" fill="#D6D6D6" p-id="6598"></path></svg>